<svg xmlns="http://www.w3.org/2000/svg" width="512" height="512" viewBox="0 0 512 512">
  <rect width="512" height="512" rx="112" fill="#0d1117"/>
  <rect x="130" y="248" width="252" height="48" rx="10" fill="#1e2631"/>
  <rect x="130" y="312" width="252" height="48" rx="10" fill="#1e2631"/>
  <rect x="130" y="376" width="252" height="48" rx="10" fill="#1e2631"/>
  <circle cx="163" cy="272" r="10" fill="#3fb950"/>
  <circle cx="163" cy="336" r="10" fill="#3fb950"/>
  <circle cx="163" cy="400" r="10" fill="#1a3a22"/>
  <rect x="190" y="264" width="80" height="6" rx="3" fill="#2d3a4a"/>
  <rect x="190" y="276" width="52" height="6" rx="3" fill="#2d3a4a"/>
  <rect x="190" y="328" width="80" height="6" rx="3" fill="#2d3a4a"/>
  <rect x="190" y="340" width="52" height="6" rx="3" fill="#2d3a4a"/>
  <rect x="190" y="392" width="80" height="6" rx="3" fill="#1a2530"/>
  <rect x="190" y="404" width="52" height="6" rx="3" fill="#1a2530"/>
  <line x1="256" y1="232" x2="256" y2="108" stroke="#3fb950" stroke-width="22" stroke-linecap="round"/>
  <polyline points="196,166 256,98 316,166" fill="none" stroke="#3fb950" stroke-width="22" stroke-linecap="round" stroke-linejoin="round"/>
</svg>
